<svg width="38" height="38" viewBox="0 0 38 38" fill="none" xmlns="http://www.w3.org/2000/svg">
<path fill-rule="evenodd" clip-rule="evenodd" d="M12.1568 24.2384C11.9759 24.0845 11.7462 24 11.5088 24H6C5.44772 24 5 23.5523 5 23V15C5 14.4477 5.44772 14 6 14H11.5087C11.7462 14 11.9759 13.9155 12.1568 13.7616L18.602 8.27784C19.2514 7.72531 20.25 8.18682 20.25 9.03946L20.25 28.9606C20.25 29.8132 19.2514 30.2747 18.602 29.7222L12.1568 24.2384Z" fill="white"/>
<path d="M20.25 28.9606L19.25 28.9606L20.25 28.9606ZM18.602 29.7222L19.25 28.9606L18.602 29.7222ZM18.602 8.27784L17.954 7.51621L18.602 8.27784ZM20.25 9.03946L21.25 9.03946L20.25 9.03946ZM12.1568 13.7616L11.5087 13L12.1568 13.7616ZM12.1568 24.2384L12.8048 23.4768L12.1568 24.2384ZM11.5088 24V23H6V24V25H11.5088V24ZM5 23H6V15H5H4V23H5ZM6 14V15H11.5087V14V13H6V14ZM12.1568 13.7616L12.8048 14.5233L19.25 9.03946L18.602 8.27784L17.954 7.51621L11.5087 13L12.1568 13.7616ZM20.25 9.03946L19.25 9.03946L19.25 28.9606L20.25 28.9606L21.25 28.9606L21.25 9.03946L20.25 9.03946ZM18.602 29.7222L19.25 28.9606L12.8048 23.4768L12.1568 24.2384L11.5088 25L17.954 30.4838L18.602 29.7222ZM20.25 28.9606L19.25 28.9606L19.25 28.9606L18.602 29.7222L17.954 30.4838C19.2528 31.5889 21.25 30.6658 21.25 28.9606L20.25 28.9606ZM18.602 8.27784L19.25 9.03946L19.25 9.03946L20.25 9.03946L21.25 9.03946C21.25 7.33419 19.2528 6.41116 17.954 7.51621L18.602 8.27784ZM11.5087 14V15C11.9837 15 12.4431 14.831 12.8048 14.5233L12.1568 13.7616L11.5087 13L11.5087 13V14ZM5 15H6L6 15V14V13C4.89543 13 4 13.8954 4 15H5ZM6 24V23L6 23H5H4C4 24.1046 4.89543 25 6 25V24ZM11.5088 24V25L11.5088 25L12.1568 24.2384L12.8048 23.4768C12.4431 23.169 11.9837 23 11.5088 23V24Z" fill="white"/>
<path d="M32 15L24 23" stroke="white" stroke-width="2" stroke-linecap="round" stroke-linejoin="round"/>
<path d="M32 23L24 15" stroke="white" stroke-width="2" stroke-linecap="round" stroke-linejoin="round"/>
</svg>
