<svg width="38" height="38" viewBox="0 0 38 38" fill="none" xmlns="http://www.w3.org/2000/svg">
<path d="M13 9V16" stroke="white" stroke-width="2" stroke-linecap="round" stroke-linejoin="round"/>
<path d="M17 9V16" stroke="white" stroke-width="2" stroke-linecap="round" stroke-linejoin="round"/>
<path d="M21 9V16" stroke="white" stroke-width="2" stroke-linecap="round" stroke-linejoin="round"/>
<path d="M25 9V16" stroke="white" stroke-width="2" stroke-linecap="round" stroke-linejoin="round"/>
<path d="M22.9336 15C24.0299 15 25.6049 14.9874 27.1113 16.5117C28.5182 17.9355 29.7648 20.5959 30.8379 25.4707L32.96 32.7188V32.7207C32.9692 32.7527 32.9773 32.7852 32.9834 32.8184C32.9932 32.8712 32.9968 32.9241 32.998 32.9766C32.9982 32.9844 33 32.9922 33 33C33 33.002 32.999 33.0039 32.999 33.0059C32.9987 33.061 32.9936 33.1154 32.9844 33.1689C32.9829 33.1777 32.9822 33.1866 32.9805 33.1953C32.9701 33.2468 32.9546 33.2968 32.9365 33.3457C32.933 33.3554 32.9306 33.3655 32.9268 33.375C32.9203 33.3909 32.9125 33.4063 32.9053 33.4219C32.8984 33.4367 32.8914 33.4514 32.8838 33.4658C32.8779 33.4771 32.8716 33.488 32.8652 33.499C32.8547 33.5173 32.8437 33.5352 32.832 33.5527C32.8281 33.5586 32.8243 33.5645 32.8203 33.5703C32.8066 33.59 32.7924 33.6093 32.7773 33.6279C32.7711 33.6357 32.7643 33.6428 32.7578 33.6504C32.7464 33.6637 32.7348 33.6768 32.7227 33.6895C32.71 33.7028 32.6971 33.7159 32.6836 33.7285C32.6774 33.7344 32.6714 33.7404 32.665 33.7461C32.6487 33.7607 32.6316 33.7745 32.6143 33.7881C32.6041 33.796 32.5934 33.803 32.583 33.8105C32.5701 33.8198 32.5573 33.8292 32.5439 33.8379C32.5294 33.8474 32.5141 33.8555 32.499 33.8643C32.4857 33.872 32.4728 33.8806 32.459 33.8877C32.3502 33.9441 32.2302 33.9821 32.1025 33.9951H32.0928C32.0709 33.9972 32.0491 33.9974 32.0273 33.998L32 34H6C5.99051 34 5.9811 33.9983 5.97168 33.998C5.94992 33.9974 5.92812 33.9972 5.90625 33.9951C5.88947 33.9936 5.87297 33.9907 5.85645 33.9883C5.84018 33.9859 5.82389 33.9837 5.80762 33.9805C5.7911 33.9772 5.775 33.9728 5.75879 33.9688C5.74559 33.9655 5.73192 33.9638 5.71875 33.96C5.71638 33.9593 5.71427 33.9577 5.71191 33.957C5.66016 33.9415 5.61035 33.9218 5.5625 33.8984C5.52057 33.8781 5.48035 33.8556 5.44238 33.8301C5.43714 33.8265 5.43193 33.823 5.42676 33.8193C5.32602 33.7488 5.24041 33.6612 5.17285 33.5615C5.16381 33.5482 5.15587 33.5342 5.14746 33.5205C5.12248 33.4796 5.09898 33.4377 5.08008 33.3936C5.06399 33.356 5.05052 33.3171 5.03906 33.2773C5.01473 33.1934 5.00148 33.1058 5 33.0166V33C5 32.9905 5.00071 32.9811 5.00098 32.9717C5.00162 32.9493 5.0027 32.9268 5.00488 32.9043C5.00641 32.8882 5.00846 32.8723 5.01074 32.8564C5.01312 32.8402 5.01535 32.8239 5.01855 32.8076C5.0243 32.7781 5.03176 32.7492 5.04004 32.7207V32.7188L7.16211 25.4707C8.23525 20.5959 9.48181 17.9355 10.8887 16.5117C12.3951 14.9874 13.9701 15 15.0664 15H22.9336ZM7.33496 32H30.665L28.9082 26H9.0918L7.33496 32ZM15.0664 17C14.0296 17 13.2048 17.0132 12.3115 17.917C11.4643 18.7743 10.5005 20.5006 9.57617 24H28.4238C27.4995 20.5006 26.5357 18.7743 25.6885 17.917C24.7952 17.0132 23.9704 17 22.9336 17H15.0664Z" fill="white"/>
<path d="M8.5 25H29.5L32 33H6L8.5 25Z" fill="white"/>
</svg>
