<svg width="38" height="38" viewBox="0 0 38 38" fill="none" xmlns="http://www.w3.org/2000/svg">
<mask id="path-1-outside-1_23_35" maskUnits="userSpaceOnUse" x="3.99707" y="20" width="31" height="14" fill="black">
<rect fill="white" x="3.99707" y="20" width="31" height="14"/>
<path d="M30.3477 22.0107C31.356 22.1133 32.1436 22.9646 32.1436 24V29.2002C32.1432 30.3043 31.2476 31.1999 30.1436 31.2002H7.99707C6.8927 31.2002 5.99739 30.3045 5.99707 29.2002V24C5.99707 22.8954 6.8925 22 7.99707 22H11V25C11 26.1046 11.8954 27 13 27H25C26.1046 27 27 26.1046 27 25V22H30.1436L30.3477 22.0107Z"/>
</mask>
<path d="M30.3477 22.0107C31.356 22.1133 32.1436 22.9646 32.1436 24V29.2002C32.1432 30.3043 31.2476 31.1999 30.1436 31.2002H7.99707C6.8927 31.2002 5.99739 30.3045 5.99707 29.2002V24C5.99707 22.8954 6.8925 22 7.99707 22H11V25C11 26.1046 11.8954 27 13 27H25C26.1046 27 27 26.1046 27 25V22H30.1436L30.3477 22.0107Z" fill="white"/>
<path d="M30.3477 22.0107L30.55 20.021C30.5177 20.0177 30.4853 20.0152 30.4528 20.0135L30.3477 22.0107ZM32.1436 24L34.1436 24L32.1436 24ZM32.1436 29.2002L34.1436 29.2008V29.2002H32.1436ZM30.1436 31.2002L30.1436 33.2002L30.1442 33.2002L30.1436 31.2002ZM7.99707 31.2002L7.99707 33.2002H7.99707V31.2002ZM5.99707 29.2002L3.99707 29.2002L3.99707 29.2008L5.99707 29.2002ZM5.99707 24L3.99707 24V24H5.99707ZM11 22H13C13 20.8954 12.1046 20 11 20V22ZM27 22V20C25.8954 20 25 20.8954 25 22H27ZM30.1436 22L30.2487 20.0028C30.2137 20.0009 30.1786 20 30.1436 20L30.1436 22ZM30.3477 22.0107L30.1453 24.0005C30.1456 24.0005 30.1451 24.0005 30.1441 24.0002C30.1431 23.9999 30.1425 23.9996 30.1422 23.9994C30.1418 23.9993 30.1429 23.9998 30.1442 24.0012C30.1454 24.0025 30.1451 24.0027 30.1444 24.0009C30.144 24 30.1437 23.9989 30.1435 23.9981C30.1434 23.9972 30.1436 23.9976 30.1436 24L32.1436 24L34.1436 24C34.1436 21.9265 32.5675 20.2262 30.55 20.021L30.3477 22.0107ZM32.1436 24H30.1436V29.2002H32.1436H34.1436V24H32.1436ZM32.1436 29.2002L30.1436 29.1996L30.143 29.2002L30.1436 31.2002L30.1442 33.2002C32.3523 33.1995 34.1429 31.409 34.1436 29.2008L32.1436 29.2002ZM30.1436 31.2002V29.2002H7.99707V31.2002V33.2002H30.1436V31.2002ZM7.99707 31.2002L7.99707 29.2002L7.99707 29.1996L5.99707 29.2002L3.99707 29.2008C3.9977 31.4086 5.78756 33.2002 7.99707 33.2002L7.99707 31.2002ZM5.99707 29.2002H7.99707V24H5.99707H3.99707V29.2002H5.99707ZM5.99707 24L7.99707 24L7.99707 24V22V20C5.78793 20 3.99707 21.7909 3.99707 24L5.99707 24ZM7.99707 22V24H11V22V20H7.99707V22ZM11 22H9V25H11H13V22H11ZM11 25H9C9 27.2091 10.7909 29 13 29V27V25H11ZM13 27V29H25V27V25H13V27ZM25 27V29C27.2091 29 29 27.2091 29 25H27H25V27ZM27 25H29V22H27H25V25H27ZM27 22V24H30.1436V22V20H27V22ZM30.1436 22L30.0384 23.9972L30.2425 24.008L30.3477 22.0107L30.4528 20.0135L30.2487 20.0028L30.1436 22Z" fill="white" mask="url(#path-1-outside-1_23_35)"/>
<path d="M17.5459 7.08264C18.335 6.24754 19.6649 6.24756 20.4541 7.08264L25.9277 12.8766C27.1322 14.152 26.228 16.2496 24.4736 16.2496H22.4502V20.9996H15.4502V16.2496H13.5263C11.772 16.2496 10.8678 14.152 12.0722 12.8766L17.5459 7.08264Z" fill="white"/>
<path d="M17.5459 7.08264L16.819 6.39581L16.819 6.39591L17.5459 7.08264ZM20.4541 7.08264L21.181 6.39591L21.1809 6.39579L20.4541 7.08264ZM25.9277 12.8766L26.6547 12.19L26.6546 12.1899L25.9277 12.8766ZM22.4502 16.2496V15.2496C21.8979 15.2496 21.4502 15.6973 21.4502 16.2496H22.4502ZM22.4502 20.9996V21.9996C23.0024 21.9996 23.4502 21.5519 23.4502 20.9996H22.4502ZM15.4502 20.9996H14.4502C14.4502 21.5519 14.8979 21.9996 15.4502 21.9996V20.9996ZM15.4502 16.2496H16.4502C16.4502 15.6973 16.0024 15.2496 15.4502 15.2496V16.2496ZM13.5263 16.2496L13.5263 17.2496H13.5263V16.2496ZM12.0722 12.8766L11.3453 12.1899L11.3452 12.19L12.0722 12.8766ZM17.5459 7.08264L18.2727 7.76947C18.6672 7.35195 19.3327 7.35193 19.7273 7.76949L20.4541 7.08264L21.1809 6.39579C19.9971 5.1432 18.0028 5.14312 16.819 6.39581L17.5459 7.08264ZM20.4541 7.08264L19.7272 7.76937L25.2008 13.5633L25.9277 12.8766L26.6546 12.1899L21.181 6.39591L20.4541 7.08264ZM25.9277 12.8766L25.2007 13.5632C25.8029 14.2008 25.3509 15.2496 24.4736 15.2496V16.2496V17.2496C27.1052 17.2496 28.4615 14.1032 26.6547 12.19L25.9277 12.8766ZM24.4736 16.2496V15.2496H22.4502V16.2496V17.2496H24.4736V16.2496ZM22.4502 16.2496H21.4502V20.9996H22.4502H23.4502V16.2496H22.4502ZM22.4502 20.9996V19.9996H15.4502V20.9996V21.9996H22.4502V20.9996ZM15.4502 20.9996H16.4502V16.2496H15.4502H14.4502V20.9996H15.4502ZM15.4502 16.2496V15.2496H13.5263V16.2496V17.2496H15.4502V16.2496ZM13.5263 16.2496L13.5264 15.2496C12.6491 15.2496 12.1971 14.2008 12.7993 13.5632L12.0722 12.8766L11.3452 12.19C9.53841 14.1032 10.8948 17.2496 13.5263 17.2496L13.5263 16.2496ZM12.0722 12.8766L12.7991 13.5633L18.2728 7.76937L17.5459 7.08264L16.819 6.39591L11.3453 12.1899L12.0722 12.8766Z" fill="white"/>
</svg>
