<svg width="38" height="38" viewBox="0 0 38 38" fill="none" xmlns="http://www.w3.org/2000/svg">
<circle cx="19" cy="14" r="5" fill="white" stroke="white" stroke-width="2"/>
<path d="M19 22C24.5228 22 29 26.2533 29 31.5C29 32.0105 28.9566 32.5113 28.875 33H9.125C9.0434 32.5113 9 32.0105 9 31.5C9 26.2533 13.4772 22 19 22Z" fill="white"/>
<path d="M19 21C25.1627 21 30 26.4644 30 33C30 33.5523 29.5523 34 29 34H9C8.44772 34 8 33.5523 8 33C8 26.4644 12.8373 21 19 21ZM19 23C14.411 23 10.4994 26.8732 10.0449 32H27.9551C27.5006 26.8732 23.589 23 19 23Z" fill="white"/>
</svg>
