<svg width="38" height="38" viewBox="0 0 38 38" fill="none" xmlns="http://www.w3.org/2000/svg">
<path d="M20.9248 5C21.4258 5.00023 21.8498 5.37152 21.916 5.86816L22.4365 9.77637C22.4839 10.1323 22.7204 10.4321 23.0439 10.5879C23.468 10.7921 23.8743 11.0275 24.2598 11.291C24.5562 11.4937 24.9336 11.5489 25.2656 11.4121L28.915 9.90918C29.3782 9.71822 29.9114 9.89929 30.1621 10.333L32.0869 13.666C32.3375 14.1001 32.2273 14.6533 31.8301 14.959L28.7031 17.3652C28.4188 17.584 28.2779 17.9382 28.3057 18.2959C28.3237 18.5283 28.333 18.7631 28.333 19C28.333 19.2365 28.3237 19.4712 28.3057 19.7031C28.2779 20.0606 28.419 20.4141 28.7031 20.6328L31.8311 23.041C32.2279 23.3467 32.3372 23.8991 32.0869 24.333L30.1621 27.667C29.9114 28.1007 29.3782 28.2818 28.915 28.0908L25.2666 26.5859C24.9344 26.449 24.5563 26.5042 24.2598 26.707C23.8739 26.9709 23.4675 27.2067 23.043 27.4111C22.7194 27.5669 22.4829 27.8667 22.4355 28.2227L21.915 32.1318C21.8489 32.6287 21.4251 33 20.9238 33H17.0752C16.5743 32.9997 16.1503 32.6284 16.084 32.1318L15.5625 28.2207C15.515 27.865 15.2784 27.5658 14.9551 27.4102C14.5309 27.2059 14.1248 26.9706 13.7393 26.707C13.4426 26.5042 13.0646 26.449 12.7324 26.5859L9.08496 28.0908C8.62158 28.2819 8.08851 28.1001 7.83789 27.666L5.91309 24.333C5.66284 23.8991 5.77215 23.3467 6.16895 23.041L9.29688 20.6309C9.58074 20.4121 9.72179 20.0585 9.69434 19.7012C9.67656 19.4697 9.66699 19.2359 9.66699 19C9.66699 18.7632 9.67654 18.5282 9.69434 18.2959C9.72159 17.9386 9.58068 17.5849 9.29688 17.3662L6.16992 14.959C5.77277 14.6532 5.6625 14.1001 5.91309 13.666L7.83789 10.333C8.08859 9.89926 8.62175 9.71823 9.08496 9.90918L12.7334 11.4121C13.0654 11.5489 13.4427 11.4936 13.7393 11.291C14.1246 11.0277 14.5312 10.793 14.9551 10.5889C15.2784 10.4332 15.515 10.134 15.5625 9.77832L16.084 5.86816C16.1503 5.37159 16.5743 5.00025 17.0752 5H20.9248ZM19 15C16.7909 15 15 16.7909 15 19C15 21.2091 16.7909 23 19 23C21.2091 23 23 21.2091 23 19C23 16.7909 21.2091 15 19 15Z" fill="white"/>
<path d="M20.9248 5L20.9253 4H20.9248V5ZM21.916 5.86816L22.9073 5.73615L22.9072 5.73598L21.916 5.86816ZM22.4365 9.77637L23.4278 9.64447L23.4278 9.64435L22.4365 9.77637ZM23.0439 10.5879L23.4779 9.68694L23.4778 9.68693L23.0439 10.5879ZM24.2598 11.291L23.6954 12.1165L23.6954 12.1165L24.2598 11.291ZM25.2656 11.4121L24.8848 10.4875L24.8847 10.4875L25.2656 11.4121ZM28.915 9.90918L29.2958 10.8338L29.2962 10.8337L28.915 9.90918ZM30.1621 10.333L31.0281 9.83291L31.0279 9.83257L30.1621 10.333ZM32.0869 13.666L32.9529 13.166L32.9529 13.1659L32.0869 13.666ZM31.8301 14.959L32.4399 15.7515L32.44 15.7515L31.8301 14.959ZM28.7031 17.3652L28.0933 16.5727L28.0932 16.5728L28.7031 17.3652ZM28.3057 18.2959L29.3027 18.2185L29.3027 18.2185L28.3057 18.2959ZM28.333 19L29.333 19L29.333 19L28.333 19ZM28.3057 19.7031L27.3087 19.6255L27.3087 19.6258L28.3057 19.7031ZM28.7031 20.6328L29.3132 19.8404L29.3131 19.8404L28.7031 20.6328ZM31.8311 23.041L32.4413 22.2488L32.4411 22.2486L31.8311 23.041ZM32.0869 24.333L32.9529 24.833L32.9532 24.8326L32.0869 24.333ZM30.1621 27.667L31.0278 28.1675L31.0281 28.167L30.1621 27.667ZM28.915 28.0908L28.5337 29.0153L28.5338 29.0153L28.915 28.0908ZM25.2666 26.5859L25.6479 25.6615L25.6476 25.6614L25.2666 26.5859ZM24.2598 26.707L24.8242 27.5325L24.8242 27.5325L24.2598 26.707ZM23.043 27.4111L23.4767 28.3122L23.4767 28.3122L23.043 27.4111ZM22.4355 28.2227L23.4268 28.3546L23.4268 28.3545L22.4355 28.2227ZM21.915 32.1318L22.9063 32.2639L22.9063 32.2638L21.915 32.1318ZM17.0752 33L17.0747 34H17.0752V33ZM16.084 32.1318L15.0928 32.264L15.0928 32.2641L16.084 32.1318ZM15.5625 28.2207L16.5537 28.0885L16.5537 28.0884L15.5625 28.2207ZM14.9551 27.4102L15.3889 26.5092L15.3889 26.5092L14.9551 27.4102ZM13.7393 26.707L13.1749 27.5326L13.1749 27.5326L13.7393 26.707ZM12.7324 26.5859L12.3513 25.6614L12.351 25.6615L12.7324 26.5859ZM9.08496 28.0908L9.4662 29.0153L9.46636 29.0152L9.08496 28.0908ZM7.83789 27.666L8.70393 27.166L8.70386 27.1659L7.83789 27.666ZM5.91309 24.333L5.04683 24.8326L5.04712 24.8331L5.91309 24.333ZM6.16895 23.041L6.77928 23.8332L6.7793 23.8331L6.16895 23.041ZM9.29688 20.6309L9.90723 21.423L9.90726 21.423L9.29688 20.6309ZM9.69434 19.7012L8.69727 19.7778L8.69727 19.7778L9.69434 19.7012ZM9.66699 19L8.66699 19V19H9.66699ZM9.69434 18.2959L10.6914 18.3723L10.6914 18.372L9.69434 18.2959ZM9.29688 17.3662L9.90733 16.5742L9.90688 16.5738L9.29688 17.3662ZM6.16992 14.959L5.55991 15.7514L5.55991 15.7514L6.16992 14.959ZM5.91309 13.666L5.04712 13.1659L5.04703 13.1661L5.91309 13.666ZM7.83789 10.333L6.9721 9.8326L6.97192 9.83291L7.83789 10.333ZM9.08496 9.90918L8.70384 10.8337L8.70407 10.8338L9.08496 9.90918ZM12.7334 11.4121L13.1144 10.4875L13.1143 10.4875L12.7334 11.4121ZM13.7393 11.291L14.3033 12.1168L14.3035 12.1166L13.7393 11.291ZM14.9551 10.5889L15.3889 11.4899L15.3889 11.4899L14.9551 10.5889ZM15.5625 9.77832L16.5537 9.91062L16.5537 9.91052L15.5625 9.77832ZM16.084 5.86816L15.0928 5.73586L15.0928 5.73597L16.084 5.86816ZM17.0752 5L17.0752 4L17.0747 4L17.0752 5ZM20.9248 5L20.9244 6L20.9248 6.00034L21.916 5.86816L22.9072 5.73598C22.7748 4.74263 21.9272 4.00045 20.9253 4L20.9248 5ZM21.916 5.86816L20.9248 6.00018L21.4453 9.90838L22.4365 9.77637L23.4278 9.64435L22.9073 5.73615L21.916 5.86816ZM22.4365 9.77637L21.4453 9.90826C21.5414 10.631 22.0143 11.2019 22.61 11.4889L23.0439 10.5879L23.4778 9.68693C23.4551 9.67599 23.4405 9.66223 23.433 9.65238C23.4264 9.64358 23.4273 9.64093 23.4278 9.64447L22.4365 9.77637ZM23.0439 10.5879L22.61 11.4888C22.9885 11.6711 23.3512 11.8812 23.6954 12.1165L24.2598 11.291L24.8242 10.4655C24.3974 10.1737 23.9475 9.91315 23.4779 9.68694L23.0439 10.5879ZM24.2598 11.291L23.6954 12.1165C24.2416 12.49 24.9722 12.6145 25.6465 12.3367L25.2656 11.4121L24.8847 10.4875C24.8879 10.4862 24.8863 10.4882 24.8758 10.4869C24.8639 10.4854 24.845 10.4798 24.8242 10.4655L24.2598 11.291ZM25.2656 11.4121L25.6464 12.3368L29.2958 10.8338L28.915 9.90918L28.5342 8.98452L24.8848 10.4875L25.2656 11.4121ZM28.915 9.90918L29.2962 10.8337L29.2963 10.8334L30.1621 10.333L31.0279 9.83257C30.5262 8.96465 29.4598 8.60295 28.5339 8.98466L28.915 9.90918ZM30.1621 10.333L29.2961 10.8331L31.2209 14.1661L32.0869 13.666L32.9529 13.1659L31.0281 9.83291L30.1621 10.333ZM32.0869 13.666L31.2209 14.166L31.2202 14.1665L31.8301 14.959L32.44 15.7515C33.2336 15.1407 33.4548 14.0352 32.9529 13.166L32.0869 13.666ZM31.8301 14.959L31.2202 14.1665L28.0933 16.5727L28.7031 17.3652L29.313 18.1577L32.4399 15.7515L31.8301 14.959ZM28.7031 17.3652L28.0932 16.5728C27.5155 17.0174 27.2573 17.7126 27.3087 18.3733L28.3057 18.2959L29.3027 18.2185C29.3008 18.1942 29.3052 18.1756 29.3097 18.165C29.3136 18.1556 29.316 18.1554 29.313 18.1577L28.7031 17.3652ZM28.3057 18.2959L27.3087 18.3733C27.3247 18.5803 27.333 18.7893 27.333 19L28.333 19L29.333 19C29.333 18.7369 29.3227 18.4763 29.3027 18.2185L28.3057 18.2959ZM28.333 19H27.333C27.333 19.2103 27.3247 19.4191 27.3087 19.6255L28.3057 19.7031L29.3027 19.7807C29.3227 19.5232 29.333 19.2627 29.333 19H28.333ZM28.3057 19.7031L27.3087 19.6258C27.2574 20.287 27.5163 20.9812 28.0932 21.4252L28.7031 20.6328L29.3131 19.8404C29.3158 19.8424 29.3134 19.8422 29.3095 19.833C29.3052 19.8227 29.3008 19.8044 29.3027 19.7804L28.3057 19.7031ZM28.7031 20.6328L28.0931 21.4252L31.221 23.8334L31.8311 23.041L32.4411 22.2486L29.3132 19.8404L28.7031 20.6328ZM31.8311 23.041L31.2208 23.8332L31.2207 23.8334L32.0869 24.333L32.9532 24.8326C33.4535 23.9651 33.2353 22.8604 32.4413 22.2488L31.8311 23.041ZM32.0869 24.333L31.2209 23.833L29.2961 27.167L30.1621 27.667L31.0281 28.167L32.9529 24.833L32.0869 24.333ZM30.1621 27.667L29.2964 27.1665L29.2962 27.1663L28.915 28.0908L28.5338 29.0153C29.4599 29.3972 30.5262 29.0352 31.0278 28.1675L30.1621 27.667ZM28.915 28.0908L29.2963 27.1664L25.6479 25.6615L25.2666 26.5859L24.8853 27.5104L28.5337 29.0153L28.915 28.0908ZM25.2666 26.5859L25.6476 25.6614C24.9733 25.3835 24.2419 25.5078 23.6953 25.8816L24.2598 26.707L24.8242 27.5325C24.8448 27.5184 24.8639 27.5127 24.8761 27.5111C24.887 27.5097 24.8889 27.5119 24.8856 27.5105L25.2666 26.5859ZM24.2598 26.707L23.6954 25.8815C23.3503 26.1175 22.9875 26.328 22.6092 26.5101L23.043 27.4111L23.4767 28.3122C23.9476 28.0855 24.3975 27.8242 24.8242 27.5325L24.2598 26.707ZM23.043 27.4111L22.6092 26.5101C22.0131 26.797 21.5404 27.3681 21.4443 28.0908L22.4355 28.2227L23.4268 28.3545C23.4264 28.358 23.4254 28.3553 23.4321 28.3466C23.4395 28.3368 23.4541 28.3231 23.4767 28.3122L23.043 27.4111ZM22.4355 28.2227L21.4443 28.0907L20.9238 31.9999L21.915 32.1318L22.9063 32.2638L23.4268 28.3546L22.4355 28.2227ZM21.915 32.1318L20.9238 31.9998L20.9238 32V33V34C21.9267 34 22.774 33.2573 22.9063 32.2639L21.915 32.1318ZM20.9238 33V32H17.0752V33V34H20.9238V33ZM17.0752 33L17.0757 32L17.0752 31.9996L16.084 32.1318L15.0928 32.2641C15.2253 33.2573 16.0728 33.9995 17.0747 34L17.0752 33ZM16.084 32.1318L17.0752 31.9997L16.5537 28.0885L15.5625 28.2207L14.5713 28.3529L15.0928 32.264L16.084 32.1318ZM15.5625 28.2207L16.5537 28.0884C16.4572 27.3653 15.9836 26.7956 15.3889 26.5092L14.9551 27.4102L14.5212 28.3111C14.5442 28.3222 14.5589 28.3361 14.5663 28.3458C14.5729 28.3545 14.5718 28.3569 14.5713 28.353L15.5625 28.2207ZM14.9551 27.4102L15.3889 26.5092C15.0105 26.327 14.648 26.1169 14.3036 25.8815L13.7393 26.707L13.1749 27.5326C13.6016 27.8242 14.0514 28.0849 14.5212 28.3111L14.9551 27.4102ZM13.7393 26.707L14.3036 25.8815C13.7572 25.5079 13.0258 25.3833 12.3513 25.6614L12.7324 26.5859L13.1136 27.5105C13.1103 27.5118 13.112 27.5097 13.1229 27.5111C13.135 27.5126 13.1541 27.5184 13.1749 27.5326L13.7393 26.707ZM12.7324 26.5859L12.351 25.6615L8.70356 27.1664L9.08496 28.0908L9.46636 29.0152L13.1138 27.5103L12.7324 26.5859ZM9.08496 28.0908L8.70372 27.1663L8.70393 27.166L7.83789 27.666L6.97186 28.166C7.47275 29.0336 8.5388 29.3977 9.4662 29.0153L9.08496 28.0908ZM7.83789 27.666L8.70386 27.1659L6.77906 23.8329L5.91309 24.333L5.04712 24.8331L6.97192 28.1661L7.83789 27.666ZM5.91309 24.333L6.77934 23.8334L6.77928 23.8332L6.16895 23.041L5.55861 22.2489C4.76486 22.8604 4.54644 23.965 5.04683 24.8326L5.91309 24.333ZM6.16895 23.041L6.7793 23.8331L9.90723 21.423L9.29688 20.6309L8.68652 19.8387L5.55859 22.2489L6.16895 23.041ZM9.29688 20.6309L9.90726 21.423C10.4835 20.9789 10.7421 20.285 10.6914 19.6246L9.69434 19.7012L8.69727 19.7778C8.69913 19.8019 8.69471 19.8204 8.69024 19.831C8.68627 19.8405 8.68377 19.8408 8.68649 19.8388L9.29688 20.6309ZM9.69434 19.7012L10.6914 19.6246C10.6755 19.4171 10.667 19.2089 10.667 19H9.66699H8.66699C8.66699 19.263 8.67765 19.5223 8.69727 19.7778L9.69434 19.7012ZM9.66699 19L10.667 19C10.667 18.79 10.6755 18.5805 10.6914 18.3723L9.69434 18.2959L8.69726 18.2195C8.67762 18.4758 8.66699 18.7364 8.66699 19L9.66699 19ZM9.69434 18.2959L10.6914 18.372C10.7418 17.7122 10.4837 17.0184 9.90733 16.5742L9.29688 17.3662L8.68642 18.1583C8.68359 18.1561 8.68609 18.1564 8.69011 18.1659C8.69462 18.1767 8.69909 18.1954 8.69723 18.2198L9.69434 18.2959ZM9.29688 17.3662L9.90688 16.5738L6.77993 14.1666L6.16992 14.959L5.55991 15.7514L8.68687 18.1586L9.29688 17.3662ZM6.16992 14.959L6.77994 14.1666C6.77899 14.1659 6.77932 14.166 6.77969 14.1666C6.77981 14.1668 6.77957 14.1664 6.7794 14.1656C6.77923 14.1647 6.77936 14.1645 6.77927 14.1651C6.7791 14.1661 6.77872 14.1667 6.77914 14.166L5.91309 13.666L5.04703 13.1661C4.54524 14.0353 4.76659 15.1406 5.55991 15.7514L6.16992 14.959ZM5.91309 13.666L6.77906 14.1661L8.70386 10.8331L7.83789 10.333L6.97192 9.83291L5.04712 13.1659L5.91309 13.666ZM7.83789 10.333L8.70368 10.8334L8.70384 10.8337L9.08496 9.90918L9.46609 8.98466C8.54021 8.60297 7.4738 8.96458 6.9721 9.8326L7.83789 10.333ZM9.08496 9.90918L8.70407 10.8338L12.3525 12.3367L12.7334 11.4121L13.1143 10.4875L9.46585 8.98456L9.08496 9.90918ZM12.7334 11.4121L12.3524 12.3367C13.0271 12.6147 13.7575 12.4896 14.3033 12.1168L13.7393 11.291L13.1752 10.4653C13.1541 10.4797 13.135 10.4853 13.1231 10.4869C13.1125 10.4882 13.111 10.4861 13.1144 10.4875L12.7334 11.4121ZM13.7393 11.291L14.3035 12.1166C14.6468 11.882 15.0098 11.6724 15.3889 11.4899L14.9551 10.5889L14.5213 9.68785C14.0526 9.91352 13.6023 10.1734 13.1751 10.4654L13.7393 11.291ZM14.9551 10.5889L15.3889 11.4899C15.9837 11.2035 16.4572 10.6337 16.5537 9.91062L15.5625 9.77832L14.5713 9.64602C14.5718 9.64216 14.5729 9.64454 14.5663 9.65322C14.5589 9.66296 14.5442 9.67681 14.5213 9.68787L14.9551 10.5889ZM15.5625 9.77832L16.5537 9.91052L17.0752 6.00036L16.084 5.86816L15.0928 5.73597L14.5713 9.64612L15.5625 9.77832ZM16.084 5.86816L17.0752 6.00046L17.0757 6L17.0752 5L17.0747 4C16.0728 4.0005 15.2253 4.74273 15.0928 5.73586L16.084 5.86816ZM17.0752 5V6H20.9248V5V4H17.0752V5ZM19 15V14C16.2386 14 14 16.2386 14 19H15H16C16 17.3431 17.3431 16 19 16V15ZM15 19H14C14 21.7614 16.2386 24 19 24V23V22C17.3431 22 16 20.6569 16 19H15ZM19 23V24C21.7614 24 24 21.7614 24 19H23H22C22 20.6569 20.6569 22 19 22V23ZM23 19H24C24 16.2386 21.7614 14 19 14V15V16C20.6569 16 22 17.3431 22 19H23Z" fill="white"/>
</svg>
