<svg width="38" height="38" viewBox="0 0 38 38" fill="none" xmlns="http://www.w3.org/2000/svg">
<path d="M31.542 16.0894C31.8275 16.2736 32 16.5901 32 16.9298V32.0001C32 32.5523 31.5523 33.0001 31 33.0001H24C23.4477 33.0001 23 32.5523 23 32.0001V27.0001C23 24.7909 21.2091 23.0001 19 23.0001C16.7909 23.0001 15 24.7909 15 27.0001V32.0001C15 32.5523 14.5523 33.0001 14 33.0001H7C6.44772 33.0001 6 32.5523 6 32.0001V16.9298C6 16.5901 6.17248 16.2736 6.45798 16.0894L18.458 8.34965C18.788 8.13681 19.212 8.13681 19.542 8.34965L31.542 16.0894Z" fill="white"/>
<path d="M18.458 8.34965L19 9.19002L18.458 8.34965ZM19.542 8.34965L20.084 7.50929L19.542 8.34965ZM31.542 16.0894L31 16.9298L31.542 16.0894ZM32 16.9298H31V32.0001H32H33V16.9298H32ZM31 33.0001V32.0001H24V33.0001V34.0001H31V33.0001ZM23 32.0001H24V27.0001H23H22V32.0001H23ZM23 27.0001H24C24 24.2386 21.7614 22.0001 19 22.0001V23.0001V24.0001C20.6569 24.0001 22 25.3432 22 27.0001H23ZM19 23.0001V22.0001C16.2386 22.0001 14 24.2386 14 27.0001H15H16C16 25.3432 17.3431 24.0001 19 24.0001V23.0001ZM15 27.0001H14V32.0001H15H16V27.0001H15ZM14 33.0001V32.0001H7V33.0001V34.0001H14V33.0001ZM6 32.0001H7V16.9298H6H5V32.0001H6ZM6.45798 16.0894L7 16.9298L19 9.19002L18.458 8.34965L17.916 7.50929L5.91596 15.2491L6.45798 16.0894ZM19.542 8.34965L19 9.19002L31 16.9298L31.542 16.0894L32.084 15.2491L20.084 7.50929L19.542 8.34965ZM18.458 8.34965L19 9.19002L19 9.19002L19.542 8.34965L20.084 7.50929C19.424 7.0836 18.576 7.0836 17.916 7.50929L18.458 8.34965ZM6 16.9298H7L7 16.9298L6.45798 16.0894L5.91596 15.2491C5.34496 15.6174 5 16.2503 5 16.9298H6ZM7 33.0001V32.0001L7 32.0001H6H5C5 33.1046 5.89543 34.0001 7 34.0001V33.0001ZM24 33.0001V32.0001L24 32.0001H23H22C22 33.1046 22.8954 34.0001 24 34.0001V33.0001ZM15 32.0001H14L14 32.0001V33.0001V34.0001C15.1046 34.0001 16 33.1046 16 32.0001H15ZM32 32.0001H31L31 32.0001V33.0001V34.0001C32.1046 34.0001 33 33.1046 33 32.0001H32ZM32 16.9298H33C33 16.2503 32.655 15.6174 32.084 15.2491L31.542 16.0894L31 16.9298L31 16.9298H32Z" fill="white"/>
</svg>
