<svg width="38" height="38" viewBox="0 0 38 38" fill="none" xmlns="http://www.w3.org/2000/svg">
<path d="M27 5C27.2689 5 27.5267 5.10864 27.7148 5.30078L32.7148 10.4072C32.8978 10.5941 33 10.8459 33 11.1074V32C33 32.5523 32.5523 33 32 33H6C5.44772 33 5 32.5523 5 32V6C5 5.44772 5.44772 5 6 5H27ZM7 31H11V19C11 18.4477 11.4477 18 12 18H26C26.5523 18 27 18.4477 27 19V31H31V11.5146L27 7.42871V12C27 12.5523 26.5523 13 26 13H12C11.4477 13 11 12.5523 11 12V7H7V31ZM13 31H25V20H13V31ZM13 11H25V7H13V11Z" fill="white"/>
<path d="M12 12H27V7L31.5 10.5V12H32V19H31.5V32H27V19H12V32H6V6H12V12Z" fill="white"/>
</svg>
