<svg width="38" height="38" viewBox="0 0 38 38" fill="none" xmlns="http://www.w3.org/2000/svg">
<path d="M16.0843 5.86784L17.0755 6L17.0755 6L16.0843 5.86784ZM21.9157 5.86784L22.9069 5.73567L22.9069 5.73567L21.9157 5.86784ZM22.4367 9.77504L23.4279 9.64288L23.4279 9.64287L22.4367 9.77504ZM23.0441 10.5859L23.4779 9.68491L23.4779 9.68491L23.0441 10.5859ZM24.2625 11.2907L23.698 12.1161L23.698 12.1161L24.2625 11.2907ZM25.2691 11.4119L24.8879 10.4874L24.8879 10.4874L25.2691 11.4119ZM28.9149 9.90884L28.5337 8.98433L28.5337 8.98433L28.9149 9.90884ZM30.1621 10.3334L31.0281 9.83335L31.0281 9.83335L30.1621 10.3334ZM32.0866 13.6667L32.9526 13.1667L32.9526 13.1667L32.0866 13.6667ZM31.8306 14.959L32.4407 15.7514L32.4407 15.7514L31.8306 14.959ZM28.7057 17.3651L28.0956 16.5727L28.0956 16.5727L28.7057 17.3651ZM28.3072 18.2955L27.3099 18.3699L27.3099 18.3699L28.3072 18.2955ZM28.3072 19.7045L27.3099 19.6301L27.3099 19.6301L28.3072 19.7045ZM28.7057 20.6349L28.0956 21.4273L28.0956 21.4273L28.7057 20.6349ZM31.8306 23.041L32.4407 22.2487L32.4407 22.2487L31.8306 23.041ZM32.0865 24.3333L31.2205 23.8333L31.2205 23.8333L32.0865 24.3333ZM30.1621 27.6667L31.0281 28.1667L31.0281 28.1667L30.1621 27.6667ZM28.9149 28.0912L29.296 27.1667L29.296 27.1666L28.9149 28.0912ZM25.2691 26.5881L25.6503 25.6636L25.6503 25.6636L25.2691 26.5881ZM24.2625 26.7093L24.827 27.5347L24.827 27.5347L24.2625 26.7093ZM23.044 27.4141L23.4779 28.3151L23.4779 28.3151L23.044 27.4141ZM22.4367 28.225L23.4279 28.3571L23.4279 28.3571L22.4367 28.225ZM21.9157 32.1322L22.9069 32.2643L22.9069 32.2643L21.9157 32.1322ZM16.0843 32.1322L17.0755 32L17.0755 32L16.0843 32.1322ZM15.5633 28.225L16.5546 28.0928L16.5546 28.0928L15.5633 28.225ZM14.9559 27.4141L14.5221 28.3151L14.5221 28.3151L14.9559 27.4141ZM13.7375 26.7093L14.302 25.8839L14.302 25.8839L13.7375 26.7093ZM12.7309 26.5881L12.3497 25.6635L12.3497 25.6635L12.7309 26.5881ZM9.08503 28.0912L8.70387 27.1667L8.70387 27.1667L9.08503 28.0912ZM7.83785 27.6667L6.97182 28.1667L6.97182 28.1667L7.83785 27.6667ZM5.91336 24.3334L6.77939 23.8334L6.77939 23.8334L5.91336 24.3334ZM6.16932 23.041L5.55924 22.2487L5.55924 22.2487L6.16932 23.041ZM9.29436 20.6349L8.68429 19.8425L8.68429 19.8425L9.29436 20.6349ZM9.69286 19.7044L10.6901 19.63L10.6901 19.63L9.69286 19.7044ZM9.69286 18.2956L8.69563 18.2212L8.69563 18.2212L9.69286 18.2956ZM9.29436 17.3652L8.68429 18.1575L8.68429 18.1575L9.29436 17.3652ZM6.1693 14.959L5.55922 15.7513L5.55923 15.7513L6.1693 14.959ZM5.91334 13.6666L5.04732 13.1666L5.04732 13.1666L5.91334 13.6666ZM7.83783 10.3333L6.9718 9.83334L6.9718 9.83334L7.83783 10.3333ZM9.08501 9.90883L8.70385 10.8333L8.70385 10.8333L9.08501 9.90883ZM12.7309 11.412L12.3497 12.3365L12.3497 12.3365L12.7309 11.412ZM13.7375 11.2907L14.302 12.1161L14.302 12.1161L13.7375 11.2907ZM14.9559 10.5859L14.5221 9.68493L14.5221 9.68493L14.9559 10.5859ZM15.5633 9.77505L16.5545 9.90722L16.5545 9.90722L15.5633 9.77505ZM17.0755 4C16.0731 4 15.2255 4.74206 15.0931 5.73567L17.0755 6L17.0755 6V4ZM20.9245 4H17.0755V6H20.9245V4ZM22.9069 5.73567C22.7745 4.74206 21.9269 4 20.9245 4V6L20.9245 6L22.9069 5.73567ZM23.4279 9.64287L22.9069 5.73567L20.9245 6L21.4454 9.9072L23.4279 9.64287ZM23.4779 9.68491C23.4549 9.67386 23.4403 9.66006 23.433 9.65036C23.4264 9.64172 23.4274 9.63926 23.4279 9.64288L21.4454 9.9072C21.5418 10.6301 22.0149 11.2003 22.6102 11.4869L23.4779 9.68491ZM24.8271 10.4653C24.3995 10.1728 23.9487 9.9116 23.4779 9.68491L22.6102 11.4869C22.9895 11.6695 23.353 11.8801 23.698 12.1161L24.8271 10.4653ZM24.8879 10.4874C24.8913 10.486 24.8897 10.4881 24.879 10.4868C24.867 10.4852 24.8479 10.4795 24.8271 10.4653L23.698 12.1161C24.2442 12.4897 24.9754 12.6147 25.6503 12.3364L24.8879 10.4874ZM28.5337 8.98433L24.8879 10.4874L25.6503 12.3364L29.296 10.8334L28.5337 8.98433ZM31.0281 9.83335C30.5269 8.96525 29.4605 8.60226 28.5337 8.98433L29.296 10.8334L29.296 10.8334L31.0281 9.83335ZM32.9526 13.1667L31.0281 9.83335L29.296 10.8334L31.2205 14.1667L32.9526 13.1667ZM32.4407 15.7514C33.2349 15.1398 33.4538 14.0348 32.9526 13.1667L31.2205 14.1667L31.2205 14.1667L32.4407 15.7514ZM29.3157 18.1574L32.4407 15.7514L31.2205 14.1667L28.0956 16.5727L29.3157 18.1574ZM29.3044 18.2211C29.3025 18.1959 29.3071 18.1766 29.3118 18.1655C29.316 18.1556 29.3186 18.1552 29.3157 18.1574L28.0956 16.5727C27.5184 17.0172 27.2608 17.7111 27.3099 18.3699L29.3044 18.2211ZM29.3333 19C29.3333 18.7381 29.3236 18.4784 29.3044 18.2211L27.3099 18.3699C27.3254 18.5777 27.3333 18.7879 27.3333 19H29.3333ZM29.3044 19.7789C29.3236 19.5216 29.3333 19.2619 29.3333 19H27.3333C27.3333 19.2122 27.3254 19.4223 27.3099 19.6301L29.3044 19.7789ZM29.3157 19.8426C29.3186 19.8448 29.316 19.8444 29.3118 19.8345C29.3071 19.8234 29.3025 19.8041 29.3044 19.7789L27.3099 19.6301C27.2608 20.2889 27.5184 20.9829 28.0956 21.4273L29.3157 19.8426ZM32.4407 22.2487L29.3157 19.8426L28.0956 21.4273L31.2205 23.8333L32.4407 22.2487ZM32.9526 24.8333C33.4538 23.9652 33.2349 22.8602 32.4407 22.2487L31.2205 23.8333L31.2205 23.8333L32.9526 24.8333ZM31.0281 28.1667L32.9526 24.8333L31.2205 23.8333L29.296 27.1667L31.0281 28.1667ZM28.5337 29.0157C29.4604 29.3977 30.5269 29.0348 31.0281 28.1667L29.296 27.1666L29.296 27.1667L28.5337 29.0157ZM24.8879 27.5126L28.5337 29.0157L29.296 27.1666L25.6503 25.6636L24.8879 27.5126ZM24.827 27.5347C24.8479 27.5205 24.867 27.5148 24.879 27.5132C24.8897 27.5119 24.8913 27.514 24.8879 27.5126L25.6503 25.6636C24.9754 25.3854 24.2442 25.5103 23.698 25.8839L24.827 27.5347ZM23.4779 28.3151C23.9487 28.0884 24.3995 27.8272 24.827 27.5347L23.698 25.8839C23.353 26.1199 22.9895 26.3305 22.6102 26.5131L23.4779 28.3151ZM23.4279 28.3571C23.4274 28.3607 23.4264 28.3583 23.433 28.3496C23.4403 28.3399 23.4549 28.3261 23.4779 28.3151L22.6102 26.5131C22.0149 26.7997 21.5418 27.3699 21.4454 28.0928L23.4279 28.3571ZM22.9069 32.2643L23.4279 28.3571L21.4454 28.0928L20.9245 32L22.9069 32.2643ZM20.9245 34C21.9269 34 22.7745 33.2579 22.9069 32.2643L20.9245 32L20.9245 32V34ZM17.0755 34H20.9245V32H17.0755V34ZM15.0931 32.2643C15.2255 33.2579 16.0731 34 17.0755 34V32L17.0755 32L15.0931 32.2643ZM14.5721 28.3571L15.0931 32.2643L17.0755 32L16.5546 28.0928L14.5721 28.3571ZM14.5221 28.3151C14.5451 28.3261 14.5597 28.3399 14.567 28.3496C14.5736 28.3583 14.5726 28.3607 14.5721 28.3571L16.5546 28.0928C16.4582 27.3699 15.9851 26.7997 15.3898 26.5131L14.5221 28.3151ZM13.1729 27.5347C13.6005 27.8272 14.0513 28.0884 14.5221 28.3151L15.3898 26.5131C15.0105 26.3305 14.647 26.1199 14.302 25.8839L13.1729 27.5347ZM13.112 27.5126C13.1087 27.5139 13.1103 27.5119 13.121 27.5132C13.133 27.5147 13.1521 27.5204 13.1729 27.5347L14.302 25.8839C13.7558 25.5103 13.0246 25.3853 12.3497 25.6635L13.112 27.5126ZM9.46618 29.0157L13.112 27.5126L12.3497 25.6635L8.70387 27.1667L9.46618 29.0157ZM6.97182 28.1667C7.47302 29.0348 8.53945 29.3978 9.46619 29.0157L8.70387 27.1667L8.70387 27.1667L6.97182 28.1667ZM5.04734 24.8334L6.97182 28.1667L8.70387 27.1667L6.77939 23.8334L5.04734 24.8334ZM5.55924 22.2487C4.76499 22.8602 4.54613 23.9652 5.04734 24.8334L6.77939 23.8334L6.77939 23.8334L5.55924 22.2487ZM8.68429 19.8425L5.55924 22.2487L6.77939 23.8334L9.90443 21.4272L8.68429 19.8425ZM8.69563 19.7789C8.69751 19.804 8.69289 19.8233 8.68822 19.8344C8.68406 19.8443 8.68144 19.8447 8.68429 19.8425L9.90443 21.4272C10.4816 20.9828 10.7392 20.2888 10.6901 19.63L8.69563 19.7789ZM8.66668 19C8.66668 19.2618 8.67643 19.5216 8.69563 19.7789L10.6901 19.63C10.6746 19.4222 10.6667 19.2121 10.6667 19H8.66668ZM8.69563 18.2212C8.67643 18.4784 8.66668 18.7382 8.66668 19H10.6667C10.6667 18.7879 10.6746 18.5778 10.6901 18.37L8.69563 18.2212ZM8.68429 18.1575C8.68144 18.1553 8.68406 18.1557 8.68822 18.1656C8.69289 18.1767 8.69751 18.196 8.69563 18.2212L10.6901 18.37C10.7392 17.7112 10.4816 17.0172 9.90443 16.5728L8.68429 18.1575ZM5.55923 15.7513L8.68429 18.1575L9.90443 16.5728L6.77937 14.1666L5.55923 15.7513ZM5.04732 13.1666C4.54611 14.0348 4.76497 15.1398 5.55922 15.7513L6.77937 14.1666L6.77937 14.1666L5.04732 13.1666ZM6.9718 9.83334L5.04732 13.1666L6.77937 14.1666L8.70385 10.8333L6.9718 9.83334ZM9.46617 8.98432C8.53943 8.60225 7.473 8.96523 6.9718 9.83334L8.70385 10.8333L8.70385 10.8333L9.46617 8.98432ZM13.112 10.4874L9.46617 8.98432L8.70385 10.8333L12.3497 12.3365L13.112 10.4874ZM13.1729 10.4653C13.1521 10.4796 13.133 10.4853 13.121 10.4868C13.1103 10.4882 13.1087 10.4861 13.112 10.4874L12.3497 12.3365C13.0246 12.6147 13.7558 12.4897 14.302 12.1161L13.1729 10.4653ZM14.5221 9.68493C14.0513 9.91161 13.6005 10.1728 13.1729 10.4653L14.302 12.1161C14.647 11.8802 15.0105 11.6695 15.3898 11.4869L14.5221 9.68493ZM14.5721 9.64289C14.5726 9.63927 14.5736 9.64174 14.567 9.65037C14.5597 9.66007 14.5451 9.67388 14.5221 9.68493L15.3898 11.4869C15.9851 11.2003 16.4582 10.6301 16.5545 9.90722L14.5721 9.64289ZM15.0931 5.73567L14.5721 9.64289L16.5545 9.90722L17.0755 6L15.0931 5.73567ZM22 19C22 20.6569 20.6569 22 19 22V24C21.7614 24 24 21.7614 24 19H22ZM19 16C20.6569 16 22 17.3431 22 19H24C24 16.2386 21.7614 14 19 14V16ZM16 19C16 17.3431 17.3431 16 19 16V14C16.2386 14 14 16.2386 14 19H16ZM19 22C17.3431 22 16 20.6569 16 19H14C14 21.7614 16.2386 24 19 24V22Z" fill="black"/>
</svg>
