<svg width="38" height="38" viewBox="0 0 38 38" fill="none" xmlns="http://www.w3.org/2000/svg">
<mask id="path-1-outside-1_18_2" maskUnits="userSpaceOnUse" x="3.99707" y="20" width="31" height="14" fill="black">
<rect fill="white" x="3.99707" y="20" width="31" height="14"/>
<path d="M30.3477 22.0107C31.356 22.1133 32.1436 22.9646 32.1436 24V29.2002C32.1432 30.3043 31.2476 31.1999 30.1436 31.2002H7.99707C6.8927 31.2002 5.99739 30.3045 5.99707 29.2002V24C5.99707 22.8954 6.8925 22 7.99707 22H11V25C11 26.1046 11.8954 27 13 27H25C26.1046 27 27 26.1046 27 25V22H30.1436L30.3477 22.0107Z"/>
</mask>
<path d="M30.3477 22.0107L30.55 20.021C30.5177 20.0177 30.4853 20.0152 30.4528 20.0135L30.3477 22.0107ZM32.1436 24L34.1436 24L32.1436 24ZM32.1436 29.2002L34.1436 29.2008V29.2002H32.1436ZM30.1436 31.2002L30.1436 33.2002L30.1442 33.2002L30.1436 31.2002ZM7.99707 31.2002L7.99707 33.2002H7.99707V31.2002ZM5.99707 29.2002L3.99707 29.2002L3.99707 29.2008L5.99707 29.2002ZM5.99707 24L3.99707 24V24H5.99707ZM11 22H13C13 20.8954 12.1046 20 11 20V22ZM27 22V20C25.8954 20 25 20.8954 25 22H27ZM30.1436 22L30.2487 20.0028C30.2137 20.0009 30.1786 20 30.1436 20L30.1436 22ZM30.3477 22.0107L30.1453 24.0005C30.1456 24.0005 30.1451 24.0005 30.1441 24.0002C30.1431 23.9999 30.1425 23.9996 30.1422 23.9994C30.1418 23.9993 30.1429 23.9998 30.1442 24.0012C30.1454 24.0025 30.1451 24.0027 30.1444 24.0009C30.144 24 30.1437 23.9989 30.1435 23.9981C30.1434 23.9972 30.1436 23.9976 30.1436 24L32.1436 24L34.1436 24C34.1436 21.9265 32.5675 20.2262 30.55 20.021L30.3477 22.0107ZM32.1436 24H30.1436V29.2002H32.1436H34.1436V24H32.1436ZM32.1436 29.2002L30.1436 29.1996L30.143 29.2002L30.1436 31.2002L30.1442 33.2002C32.3523 33.1995 34.1429 31.409 34.1436 29.2008L32.1436 29.2002ZM30.1436 31.2002V29.2002H7.99707V31.2002V33.2002H30.1436V31.2002ZM7.99707 31.2002L7.99707 29.2002L7.99707 29.1996L5.99707 29.2002L3.99707 29.2008C3.9977 31.4086 5.78756 33.2002 7.99707 33.2002L7.99707 31.2002ZM5.99707 29.2002H7.99707V24H5.99707H3.99707V29.2002H5.99707ZM5.99707 24L7.99707 24L7.99707 24V22V20C5.78793 20 3.99707 21.7909 3.99707 24L5.99707 24ZM7.99707 22V24H11V22V20H7.99707V22ZM11 22H9V25H11H13V22H11ZM11 25H9C9 27.2091 10.7909 29 13 29V27V25H11ZM13 27V29H25V27V25H13V27ZM25 27V29C27.2091 29 29 27.2091 29 25H27H25V27ZM27 25H29V22H27H25V25H27ZM27 22V24H30.1436V22V20H27V22ZM30.1436 22L30.0384 23.9972L30.2425 24.008L30.3477 22.0107L30.4528 20.0135L30.2487 20.0028L30.1436 22Z" fill="black" mask="url(#path-1-outside-1_18_2)"/>
<path d="M17.7001 6.93555L17.0492 6.17635C17.0355 6.18807 17.0222 6.20016 17.0091 6.21261L17.7001 6.93555ZM20.454 7.08301L21.1809 6.39628L21.1809 6.39627L20.454 7.08301ZM25.9276 12.877L26.6546 12.1904L26.6545 12.1902L25.9276 12.877ZM22.4501 16.25V15.25C21.8978 15.25 21.4501 15.6977 21.4501 16.25H22.4501ZM22.4501 21V22C23.0023 22 23.4501 21.5523 23.4501 21H22.4501ZM15.4501 21H14.4501C14.4501 21.5523 14.8978 22 15.4501 22V21ZM15.4501 16.25H16.4501C16.4501 15.6977 16.0023 15.25 15.4501 15.25V16.25ZM13.5262 16.25L13.5262 17.25H13.5262V16.25ZM12.0721 12.877L11.3452 12.1902L11.345 12.1904L12.0721 12.877ZM17.5458 7.08301L16.8548 6.36007C16.8425 6.37183 16.8305 6.38391 16.8188 6.39628L17.5458 7.08301ZM17.7001 6.93555L18.3509 7.69475C18.7492 7.3533 19.3573 7.37841 19.7271 7.76975L20.454 7.08301L21.1809 6.39627C20.0709 5.22139 18.2493 5.1475 17.0492 6.17635L17.7001 6.93555ZM20.454 7.08301L19.727 7.76974L25.2007 13.5637L25.9276 12.877L26.6545 12.1902L21.1809 6.39628L20.454 7.08301ZM25.9276 12.877L25.2005 13.5635C25.8027 14.2012 25.3507 15.25 24.4735 15.25V16.25V17.25C27.1051 17.25 28.4613 14.1035 26.6546 12.1904L25.9276 12.877ZM24.4735 16.25V15.25H22.4501V16.25V17.25H24.4735V16.25ZM22.4501 16.25H21.4501V21H22.4501H23.4501V16.25H22.4501ZM22.4501 21V20H15.4501V21V22H22.4501V21ZM15.4501 21H16.4501V16.25H15.4501H14.4501V21H15.4501ZM15.4501 16.25V15.25H13.5262V16.25V17.25H15.4501V16.25ZM13.5262 16.25L13.5263 15.25C12.6492 15.25 12.1971 14.2012 12.7992 13.5635L12.0721 12.877L11.345 12.1904C9.53864 14.1035 10.8947 17.2499 13.5262 17.25L13.5262 16.25ZM12.0721 12.877L12.799 13.5637L18.2727 7.76974L17.5458 7.08301L16.8188 6.39628L11.3452 12.1902L12.0721 12.877ZM17.5458 7.08301L18.2367 7.80595L18.391 7.65849L17.7001 6.93555L17.0091 6.21261L16.8548 6.36007L17.5458 7.08301Z" fill="black"/>
</svg>
