<svg width="38" height="38" viewBox="0 0 38 38" fill="none" xmlns="http://www.w3.org/2000/svg">
<path d="M31.542 16.0892L31 16.9296L31.542 16.0892ZM18.458 8.34959L19 9.18996L18.458 8.34959ZM19.542 8.34959L19 9.18996L19.542 8.34959ZM6.45799 16.0892L7 16.9296L6.45799 16.0892ZM7 16.9296L19 9.18996L17.916 7.50922L5.91597 15.2489L7 16.9296ZM7 32V16.9296H5V32H7ZM14 32H7V34H14V32ZM14 27V32H16V27H14ZM19 22C16.2386 22 14 24.2386 14 27H16C16 25.3431 17.3431 24 19 24V22ZM24 27C24 24.2386 21.7614 22 19 22V24C20.6569 24 22 25.3431 22 27H24ZM24 32V27H22V32H24ZM31 32H24V34H31V32ZM31 16.9296V32H33V16.9296H31ZM19 9.18996L31 16.9296L32.084 15.2489L20.084 7.50922L19 9.18996ZM33 16.9296C33 16.2501 32.655 15.6171 32.084 15.2489L31 16.9296L31 16.9296H33ZM31 34C32.1046 34 33 33.1046 33 32H31L31 32V34ZM14 34C15.1046 34 16 33.1046 16 32H14L14 32V34ZM22 32C22 33.1046 22.8954 34 24 34V32L24 32H22ZM5 32C5 33.1046 5.89543 34 7 34V32L7 32H5ZM19 9.18996L19 9.18996L20.084 7.50922C19.424 7.08354 18.576 7.08354 17.916 7.50922L19 9.18996ZM5.91597 15.2489C5.34497 15.6171 5 16.2501 5 16.9296H7L7 16.9296L5.91597 15.2489Z" fill="black"/>
</svg>
