<svg width="38" height="38" viewBox="0 0 38 38" fill="none" xmlns="http://www.w3.org/2000/svg">
<path d="M25 14C26.2144 15.0261 27 16.6599 27 18.5C27 20.3401 26.2144 21.9739 25 23" stroke="black" stroke-width="2" stroke-linecap="round" stroke-linejoin="round"/>
<path d="M29.1574 10C31.4959 12.0702 33 15.3013 33 18.9318C33 22.643 31.4282 25.9369 29 28" stroke="black" stroke-width="2" stroke-linecap="round" stroke-linejoin="round"/>
<path d="M18.602 29.7222L19.25 28.9605L18.602 29.7222ZM20.25 9.03945L19.25 9.03945L20.25 9.03945ZM12.1568 13.7616L11.5087 13L12.1568 13.7616ZM12.1568 24.2384L12.8048 23.4767L12.1568 24.2384ZM11.5088 23H6V25H11.5088V23ZM6 23V15H4V23H6ZM6 15H11.5087V13H6V15ZM12.8048 14.5233L19.25 9.03945L17.954 7.5162L11.5087 13L12.8048 14.5233ZM19.25 9.03945L19.25 28.9605L21.25 28.9605L21.25 9.03945L19.25 9.03945ZM19.25 28.9605L12.8048 23.4767L11.5088 25L17.954 30.4838L19.25 28.9605ZM19.25 28.9605L19.25 28.9605L17.954 30.4838C19.2528 31.5888 21.25 30.6658 21.25 28.9605L19.25 28.9605ZM19.25 9.03945L19.25 9.03945L21.25 9.03945C21.25 7.33418 19.2528 6.41115 17.954 7.5162L19.25 9.03945ZM11.5087 15C11.9837 15 12.4431 14.831 12.8048 14.5233L11.5087 13L11.5087 13V15ZM6 15L6 15V13C4.89543 13 4 13.8954 4 15H6ZM6 23L6 23H4C4 24.1046 4.89543 25 6 25V23ZM11.5088 25L11.5088 25L12.8048 23.4767C12.4431 23.169 11.9837 23 11.5088 23V25Z" fill="black"/>
</svg>
