<?xml version="1.0" encoding="UTF-8"?>
<svg width="1920" height="1080" version="1.1" viewBox="0 0 1920 1080" xmlns="http://www.w3.org/2000/svg">
 <path d="M130 980c160-100 320-100 480 0s320 100 480 0 320-100 480 0 320 100 480 0" fill="none" stroke="#fff" stroke-width="2"/>
 <path d="M130 985c160-100 320-100 480 0s320 100 480 0 320-100 480 0 320 100 480 0" fill="none" stroke="#fff" stroke-width="2" opacity=".8"/>
 <path d="M130 990c160-100 320-100 480 0s320 100 480 0 320-100 480 0 320 100 480 0" fill="none" stroke="#fff" stroke-width="2" opacity=".6"/>
 <path d="M130 995c160-100 320-100 480 0s320 100 480 0 320-100 480 0 320 100 480 0" fill="none" stroke="#fff" stroke-width="2" opacity=".4"/>
 <path d="M130 1000c160-100 320-100 480 0s320 100 480 0 320-100 480 0 320 100 480 0" fill="none" stroke="#fff" stroke-width="2" opacity=".2"/>
</svg> 