<svg width="42" height="37" viewBox="0 0 42 37" fill="none" xmlns="http://www.w3.org/2000/svg">
<path d="M17.5361 2.81152C19.0757 0.144872 22.9243 0.144862 24.4639 2.81152L40.5957 30.7529C42.1353 33.4196 40.211 36.7529 37.1318 36.7529H4.86816C1.78896 36.7529 -0.135304 33.4196 1.4043 30.7529L17.5361 2.81152ZM20.7012 27.9268C19.7098 27.9268 18.9064 28.7304 18.9062 29.7217C18.9062 30.7131 19.7098 31.5166 20.7012 31.5166C21.6924 31.5164 22.4961 30.713 22.4961 29.7217C22.496 28.7305 21.6923 27.927 20.7012 27.9268ZM19.0254 11.7705C18.8228 11.7706 18.6292 11.8779 18.4932 12.0654C18.3742 12.2297 18.3088 12.4427 18.3076 12.6621L18.3115 12.7568L19.3584 25.9209C19.3927 26.3513 19.6666 26.6856 20.0049 26.7256L20.0732 26.7295H21.3291C21.6749 26.7293 21.9688 26.4224 22.0342 26.0059L22.0439 25.9209L23.0908 12.7568C23.1108 12.5047 23.0452 12.2533 22.9092 12.0654C22.7732 11.8778 22.5795 11.7707 22.377 11.7705H19.0254Z" fill="white"/>
</svg>
