<svg width="67" height="60" viewBox="0 0 67 60" fill="none" xmlns="http://www.w3.org/2000/svg">
<path d="M27.4374 3.5C30.1317 -1.16667 36.8681 -1.16667 39.5624 3.5L65.9755 49.25C68.6697 53.9166 65.3024 59.7498 59.9139 59.75H7.08582C1.69743 59.7497 -1.66995 53.9166 1.02429 49.25L27.4374 3.5ZM32.9999 45C31.3431 45 29.9999 46.3432 29.9999 48C29.9999 49.6568 31.3431 51 32.9999 51C34.6567 51 35.9999 49.6569 35.9999 48C35.9999 46.3431 34.6567 45 32.9999 45ZM30.2001 18C29.8612 18 29.5379 18.1793 29.3104 18.4932C29.1115 18.7678 29.0018 19.1234 28.9999 19.4902L29.0057 19.6484L30.7557 41.6484C30.813 42.3677 31.2706 42.9262 31.8358 42.9932L31.9501 43H34.0497C34.6279 43 35.1181 42.4863 35.2274 41.79L35.244 41.6484L36.994 19.6484C37.0275 19.227 36.9176 18.8072 36.6903 18.4932C36.4628 18.1792 36.1386 18 35.7997 18H30.2001Z" fill="white"/>
</svg>
